<svg xmlns="http://www.w3.org/2000/svg" width="73.88" height="41.015" viewBox="0 0 73.88 41.015"><defs><style>.a{fill:#64b900;}.b{fill:#1d69a7;}</style></defs><g transform="translate(-37.803 -27.74)"><g transform="translate(37.803 27.74)"><path class="a" d="M335.74,49.932a2.027,2.027,0,0,0-2.506-1.387,24.956,24.956,0,0,0-5.171,2.374c-.66.387-1.332.8-2.043,1.242-1.029.635-2.091,1.291-3.168,1.888a14.918,14.918,0,0,1-6.01,2.129H316.2a12.7,12.7,0,0,1-11.951-10.2,8.881,8.881,0,0,0,3.494,1.947c4.853,1.376,9.94-1.767,14.027-4.293.691-.423,1.345-.831,1.963-1.192a21.286,21.286,0,0,1,4.245-1.976l3.96-1.137-3.316-2.443c-.732-.538-18.007-13.058-25.72-2.964a11.883,11.883,0,0,0-1.139,1.825l-3.737-5.765a4.891,4.891,0,0,0-4.119-2.244h-9.82a2.025,2.025,0,1,0,0,4.05h9.82a.855.855,0,0,1,.723.394l5.538,8.557a16.947,16.947,0,0,0-.219,2.7,16.74,16.74,0,0,0,16.088,16.781h.086c.185.01.361.014.529.011h.48v-.01a18.77,18.77,0,0,0,7.688-2.629c1.16-.644,2.265-1.325,3.332-1.986.69-.423,1.343-.83,1.96-1.191a21.173,21.173,0,0,1,4.251-1.976A2.025,2.025,0,0,0,335.74,49.932ZM304.655,39.379l.048-.141a9.34,9.34,0,0,1,1.411-2.848c3.178-4.162,9.864-1.915,14.654.512a76.726,76.726,0,0,0-8.957.47c-1.009.117-2.008.264-2.964.437a1.27,1.27,0,0,0,.221,2.511,1.216,1.216,0,0,0,.224-.02c.912-.164,1.86-.3,2.822-.415a73.942,73.942,0,0,1,8.769-.449c-.4.244-.811.5-1.235.758-3.411,2.107-7.653,4.733-10.793,3.841-1.612-.457-2.964-1.825-4.148-4.179l-.135-.227C304.6,39.545,304.631,39.463,304.655,39.379Z" transform="translate(-261.941 -27.74)"/><circle class="a" cx="2.993" cy="2.993" r="2.993" transform="translate(51.624 35.029)"/><circle class="a" cx="2.993" cy="2.993" r="2.993" transform="translate(60.966 35.029)"/><path class="b" d="M269.034,116.645H258.37a1.463,1.463,0,0,1,0-2.925h10.664a1.463,1.463,0,0,1,0,2.925Z" transform="translate(-240.376 -101.587)"/><path class="b" d="M151.574,116.645H140.91a1.463,1.463,0,0,1,0-2.925h10.664a1.463,1.463,0,0,1,0,2.925Z" transform="translate(-139.492 -101.587)"/><path class="b" d="M255.051,206.134H240.842a1.462,1.462,0,0,1,0-2.924h14.209a1.462,1.462,0,1,1,0,2.924Z" transform="translate(-225.284 -178.448)"/><path class="b" d="M308.566,161.394h-9.314a1.462,1.462,0,0,1,0-2.924h9.314a1.462,1.462,0,1,1,0,2.924Z" transform="translate(-275.451 -140.021)"/><path class="b" d="M201.365,161.394h-8.373a1.462,1.462,0,0,1,0-2.924h8.373a1.462,1.462,0,0,1,0,2.924Z" transform="translate(-184.186 -140.021)"/></g></g></svg>