<svg xmlns="http://www.w3.org/2000/svg" width="355.097" height="303.973" viewBox="0 0 355.097 303.973"><defs><style>.a{fill:#e3e3e3;}.b{fill:#fff;}.c{fill:#f2f2f2;}.d{fill:#04243f;}.e{fill:#3f3d56;}.f{fill:#64b900;}.g{fill:#e6e6e6;}.h{fill:#1d69a7;}</style></defs><g transform="translate(0.001)"><path class="a" d="M416.106,638.467c5.7-4.817,9.163-12.426,8.255-19.833s-6.532-14.217-13.827-15.79-15.611,2.781-17.827,9.908c-1.219-13.74-2.625-28.055-9.93-39.755-6.614-10.595-18.07-18.175-30.486-19.531s-25.488,3.766-33.231,13.566-9.639,24.046-4.216,35.3c4,8.288,11.355,14.456,19.067,19.474a123.059,123.059,0,0,0,84.165,18.412" transform="translate(-311.75 -337.666)"/><path class="b" d="M342.269,560a203.052,203.052,0,0,1,59.663,80.675c.569,1.394-1.7,2-2.258.622a200.966,200.966,0,0,0-59.06-79.642c-1.169-.952.5-2.6,1.656-1.656Z" transform="translate(-322.682 -340.149)"/><path class="a" d="M482.328,638.467c-5.7-4.817-9.163-12.426-8.255-19.833s6.532-14.217,13.828-15.79,15.611,2.781,17.827,9.908c1.219-13.74,2.625-28.055,9.929-39.755,6.614-10.595,18.07-18.175,30.486-19.531s25.488,3.766,33.231,13.566,9.639,24.046,4.216,35.3c-4,8.288-11.355,14.456-19.067,19.474a123.058,123.058,0,0,1-84.164,18.412" transform="translate(-374.035 -337.666)"/><path class="b" d="M587.931,560a203.054,203.054,0,0,0-59.663,80.675c-.569,1.395,1.7,2,2.258.622a200.792,200.792,0,0,1,59.06-79.642c1.169-.952-.5-2.6-1.656-1.656Z" transform="translate(-394.868 -340.149)"/><circle class="c" cx="19.095" cy="19.095" r="19.095" transform="translate(106.114 98.553)"/><path class="c" d="M387.409,287.388H518.965v7.2H404.2a51.382,51.382,0,0,0-51.382,51.382V427.74h-14.4a2.4,2.4,0,0,1-2.4-2.4V338.77a51.382,51.382,0,0,1,51.382-51.382Z" transform="translate(-321.074 -235.563)"/><path class="d" d="M460.527,624.082V514.75h32.029V624.082a2.775,2.775,0,0,1-2.772,2.772H463.3a2.775,2.775,0,0,1-2.772-2.772Z" transform="translate(-368.888 -322.881)"/><path class="e" d="M325.027,422.535v-88.9a53.442,53.442,0,0,1,53.382-53.382H514.125V425.615H328.107a3.083,3.083,0,0,1-3.08-3.08ZM512.893,281.482H378.409a52.209,52.209,0,0,0-52.15,52.15v88.9a1.85,1.85,0,0,0,1.848,1.848H512.893Z" transform="translate(-316.849 -232.822)"/><path class="f" d="M478.159,330.752a11.1,11.1,0,0,1-11.087-11.087V240.207a1.85,1.85,0,0,0-1.848-1.848H422.107a3.083,3.083,0,0,1-3.08-3.08V206.33a3.083,3.083,0,0,1,3.08-3.08h64.059a3.083,3.083,0,0,1,3.08,3.08V319.665A11.1,11.1,0,0,1,478.159,330.752Z" transform="translate(-352.95 -203.25)"/><path class="d" d="M618.136,278.25h0a35.036,35.036,0,0,1,35.11,34.962V414.419h68.987A10.449,10.449,0,0,1,732.7,424.847H583.027V313.212a35.036,35.036,0,0,1,35.109-34.962Z" transform="translate(-415.933 -232.053)"/><path class="b" d="M626.309,322.586l7.27,30.032L775.791,318.19l-7.27-30.031a2.241,2.241,0,0,0-1.452-1.6,2.214,2.214,0,0,0-.822-.124l-82.2-42.564a2.268,2.268,0,0,0-2.868.689L641.557,299.81l-14.936,20.833a.317.317,0,0,0-.055.258A2.243,2.243,0,0,0,626.309,322.586Z" transform="translate(-432.531 -218.756)"/><path class="e" d="M626.761,320.9a.3.3,0,0,0,.125.195.345.345,0,0,0,.267.053.33.33,0,0,0,.184-.128l.051-.071.778-1.087,14.123-19.688L681.9,244.939a1.614,1.614,0,0,1,2.046-.49l81.568,42.234.732.38a.785.785,0,0,0,.091.032.994.994,0,0,1,.167-.016.316.316,0,0,0,.179-.151.323.323,0,0,0-.135-.437l-.1-.054-82.2-42.563a2.268,2.268,0,0,0-2.868.689L641.752,299.81l-14.935,20.833A.317.317,0,0,0,626.761,320.9Z" transform="translate(-432.727 -218.756)"/><path class="g" d="M694.586,316.523l3.166.351,23.494,2.6L736.82,321.2l.92.1,19.435-15.18.745-.582,4.59-3.585L778.841,289.2l.1-.9,5.809-52.426a2.743,2.743,0,0,0-2.42-3.025l-77.521-8.587a2.745,2.745,0,0,0-3.025,2.42l-4.1,36.98-2.272,20.5-2.033,18.343-.942,8.518-.275,2.467A2.745,2.745,0,0,0,694.586,316.523Z" transform="translate(-457.84 -211.315)"/><path class="b" d="M728.456,294.437l33.58,3.719,11.909,1.319a4.028,4.028,0,1,0,.887-8.007l-14.812-1.64-30.674-3.4a4.03,4.03,0,1,0-.889,8.011Z" transform="translate(-470.408 -235.184)"/><path class="b" d="M725.516,318.58c.087.016.173.031.261.039l38.981,4.318,6.508.722a4.03,4.03,0,0,0,.886-8.01l-9.411-1.041-30.878-3.422-5.2-.576a4.028,4.028,0,0,0-1.152,7.969Z" transform="translate(-469.379 -244.472)"/><path class="b" d="M720.065,341.138a4.028,4.028,0,0,0,3.006,1.925l15.977,1.77,28.455,3.153.006,0,.91.1,4.59-3.585a4.016,4.016,0,0,0-3.564-4.406l-3.953-.439-15.68-1.735-11.282-1.251-14.574-1.615a4.028,4.028,0,0,0-3.892,6.085Z" transform="translate(-468.34 -253.859)"/><path class="b" d="M754.624,264.961l8.355.925,3.69.41,5.575.617a4.03,4.03,0,0,0,.886-8.01l-17.616-1.95a4.029,4.029,0,1,0-.89,8.008Z" transform="translate(-480.458 -223.865)"/><path class="h" d="M645.9,292.631l10.186,42.078,17,3.233,15.726,2.994,16.873,3.211,5.391,1.026a2.262,2.262,0,0,0,1.811-.438l4.325-3.378,2.739-2.139,19.435-15.18-12.357-51.046a2.712,2.712,0,0,0-.766-1.33,2.74,2.74,0,0,0-2.541-.688l-75.805,18.351A2.741,2.741,0,0,0,645.9,292.631Z" transform="translate(-440.048 -229.229)"/><path class="b" d="M683.793,350.711a4.032,4.032,0,0,0,4.863,2.968l44.481-10.768a4.034,4.034,0,0,0,2.968-4.863,1.283,1.283,0,0,0-.043-.152,4.028,4.028,0,0,0-4.82-2.816l-44.481,10.768A4.032,4.032,0,0,0,683.793,350.711Z" transform="translate(-454.589 -253.835)"/><path class="b" d="M690.082,371.629l15.726,2.994,33.314-8.065a4.029,4.029,0,1,0-1.9-7.831l-44.481,10.768a4,4,0,0,0-2.308,1.547A4.055,4.055,0,0,0,690.082,371.629Z" transform="translate(-457.048 -262.917)"/><path class="b" d="M743.008,388.077,748.4,389.1a2.263,2.263,0,0,0,1.811-.438l4.325-3.378Z" transform="translate(-477.374 -273.161)"/><path class="b" d="M698.344,318.194a4.032,4.032,0,0,0,4.863,2.968l17.229-4.171a4.034,4.034,0,0,0,2.968-4.863,3.981,3.981,0,0,0-.742-1.531,4.032,4.032,0,0,0-4.121-1.436l-17.228,4.171a4.029,4.029,0,0,0-2.968,4.863Z" transform="translate(-460.177 -243.881)"/><path class="b" d="M681.291,357.153l16.876,3.211,5.39,1.026a2.272,2.272,0,0,0,1.81-.438l4.328-3.379-1.519.368-3.206,2.5a1.624,1.624,0,0,1-1.293.313L699.686,360l-16.876-3.211ZM731.7,339.575l.164.679.749-.582Zm-50.408,17.579,16.876,3.211,5.39,1.026a2.272,2.272,0,0,0,1.81-.438l4.328-3.379-1.519.368-3.206,2.5a1.624,1.624,0,0,1-1.293.313L699.686,360l-16.876-3.211Zm0,0,16.876,3.211,5.39,1.026a2.272,2.272,0,0,0,1.81-.438l4.328-3.379-1.519.368-3.206,2.5a1.624,1.624,0,0,1-1.293.313L699.686,360l-16.876-3.211Zm-54.982-7.876,19.043,78.663a2.258,2.258,0,0,0,2.724,1.662L785.9,396.238a2.258,2.258,0,0,0,1.662-2.724l-19.043-78.663a2.241,2.241,0,0,0-1.452-1.6,2.214,2.214,0,0,0-.822-.124,2.129,2.129,0,0,0-.932.245,1.959,1.959,0,0,0-.374.232l-11.311,8.833L737.2,335.271l-5.5,4.3v0h0l-20.182,15.755-3.336,2.611-3.206,2.5a1.624,1.624,0,0,1-1.293.313L699.686,360l-16.876-3.211-16.891-3.212-36.995-7.04a2.211,2.211,0,0,0-.953.021,2.26,2.26,0,0,0-1.1.638,2.535,2.535,0,0,0-.3.4,2.243,2.243,0,0,0-.257,1.685Zm54.982,7.876,16.876,3.211,5.39,1.026a2.272,2.272,0,0,0,1.81-.438l4.328-3.379-1.519.368-3.206,2.5a1.624,1.624,0,0,1-1.293.313L699.686,360l-16.876-3.211Zm0,0,16.876,3.211,5.39,1.026a2.272,2.272,0,0,0,1.81-.438l4.328-3.379-1.519.368-3.206,2.5a1.624,1.624,0,0,1-1.293.313L699.686,360l-16.876-3.211Zm0,0,16.876,3.211,5.39,1.026a2.272,2.272,0,0,0,1.81-.438l4.328-3.379-1.519.368-3.206,2.5a1.624,1.624,0,0,1-1.293.313L699.686,360l-16.876-3.211Z" transform="translate(-432.532 -245.448)"/><path class="e" d="M681.291,357.154l16.876,3.211,5.39,1.026a2.272,2.272,0,0,0,1.81-.438l4.328-3.379-1.519.368-3.206,2.5a1.624,1.624,0,0,1-1.293.313L699.686,360l-16.876-3.211ZM731.7,339.575l.164.679.749-.582Zm-50.408,17.579,16.876,3.211,5.39,1.026a2.272,2.272,0,0,0,1.81-.438l4.328-3.379-1.519.368-3.206,2.5a1.624,1.624,0,0,1-1.293.313L699.686,360l-16.876-3.211Zm0,0,16.876,3.211,5.39,1.026a2.272,2.272,0,0,0,1.81-.438l4.328-3.379-1.519.368-3.206,2.5a1.624,1.624,0,0,1-1.293.313L699.686,360l-16.876-3.211Zm-54.1-9.512.084.063c.014-.023.039-.043.057-.068a1.627,1.627,0,0,1,1.469-.473l36.764,6.994,15.724,3,16.876,3.211,5.39,1.026a2.272,2.272,0,0,0,1.81-.438l4.328-3.379-1.519.368-3.206,2.5a1.623,1.623,0,0,1-1.293.313L699.686,360l-16.876-3.211-16.891-3.212-36.995-7.04a2.212,2.212,0,0,0-.953.021Zm-.884,1.636,19.043,78.663a2.259,2.259,0,0,0,2.724,1.662L785.9,396.238a2.258,2.258,0,0,0,1.662-2.724l-19.043-78.663a2.241,2.241,0,0,0-1.452-1.6,2.214,2.214,0,0,0-.822-.124,2.131,2.131,0,0,0-.933.245,1.965,1.965,0,0,0-.374.232l-11.311,8.833L737.2,335.272l-5.5,4.3v0h0l-20.182,15.755-3.336,2.611-3.206,2.5a1.623,1.623,0,0,1-1.293.313L699.687,360l-16.876-3.211-16.891-3.212-36.995-7.04a2.212,2.212,0,0,0-.953.021,2.261,2.261,0,0,0-1.1.638,2.538,2.538,0,0,0-.3.4,2.243,2.243,0,0,0-.257,1.685Zm.628-.152a1.6,1.6,0,0,1,.284-1.349.21.21,0,0,1,.056-.072c.014-.023.039-.043.057-.068a1.628,1.628,0,0,1,1.469-.473l36.764,6.993,15.724,3,16.876,3.211,5.39,1.026a2.272,2.272,0,0,0,1.81-.438l4.328-3.379,2.737-2.139,19.431-15.182.749-.582,4.587-3.583,16.334-12.756,11.809-9.222a1.6,1.6,0,0,1,.608-.294,1.243,1.243,0,0,1,.188-.031,1,1,0,0,1,.167-.016,1.652,1.652,0,0,1,.555.091A1.617,1.617,0,0,1,767.9,315l19.043,78.663a1.614,1.614,0,0,1-1.19,1.95L647.925,428.98a1.613,1.613,0,0,1-1.945-1.191Zm54.354,8.028,16.876,3.211,5.39,1.026a2.272,2.272,0,0,0,1.81-.438l4.328-3.379-1.519.368-3.206,2.5a1.623,1.623,0,0,1-1.293.313L699.686,360l-16.876-3.211Zm0,0,16.876,3.211,5.39,1.026a2.272,2.272,0,0,0,1.81-.438l4.328-3.379-1.519.368-3.206,2.5a1.623,1.623,0,0,1-1.293.313L699.686,360l-16.876-3.211Zm0,0,16.876,3.211,5.39,1.026a2.272,2.272,0,0,0,1.81-.438l4.328-3.379-1.519.368-3.206,2.5a1.623,1.623,0,0,1-1.293.313L699.686,360l-16.876-3.211Z" transform="translate(-432.532 -245.448)"/><path class="f" d="M827.041,416.489a5.007,5.007,0,0,1,3.684-6.037l17.4-4.211a5,5,0,0,1,2.353,9.721l-17.4,4.211a5.007,5.007,0,0,1-6.037-3.684Z" transform="translate(-509.592 -281.154)"/><circle class="b" cx="4.312" cy="4.312" r="4.312" transform="translate(120.897 112.104)"/></g></svg>