<svg xmlns="http://www.w3.org/2000/svg" width="699.223" height="380.742" viewBox="0 0 699.223 380.742"><defs><style>.a{fill:none;stroke:#fffde7;stroke-miterlimit:10;stroke-width:5px;}.b{fill:#64b900;}</style></defs><g transform="translate(-198.356 -3.44)"><path class="a" d="M-284.078,42.746H263.851V317.721" transform="translate(631.228 2.451)"/><path class="a" d="M749.135,205.724H200.856V-60.133" transform="translate(0 167.662)"/><g transform="translate(163.609 -215.78)"><g transform="translate(37.247 219.22)"><rect class="b" width="30.507" height="30.507" transform="translate(0 12.711)"/><path class="b" d="M37.247,231.931l11.44-12.711h5.085l-6.356,12.711Z" transform="translate(-37.247 -219.22)"/><g transform="translate(36.863)"><rect class="b" width="30.507" height="30.507" transform="translate(0 12.711)"/><path class="b" d="M59,231.931l11.44-12.711h5.085l-6.356,12.711Z" transform="translate(-58.996 -219.22)"/></g></g><g transform="translate(664.1 556.743)"><g transform="translate(36.863)"><rect class="b" width="30.507" height="30.507" transform="translate(30.507 30.507) rotate(180)"/><path class="b" d="M264.371,298.464l-11.44,12.711h-5.085l6.356-12.711Z" transform="translate(-233.864 -267.957)"/></g><rect class="b" width="30.507" height="30.507" transform="translate(30.507 30.507) rotate(180)"/><path class="b" d="M242.622,298.464l-11.44,12.711H226.1l6.356-12.711Z" transform="translate(-212.115 -267.957)"/></g></g></g></svg>