<svg xmlns="http://www.w3.org/2000/svg" xmlns:xlink="http://www.w3.org/1999/xlink" width="517.996" height="402.724" viewBox="0 0 517.996 402.724"><defs><style>.a,.d,.g,.l{fill:#fff;}.a,.o{opacity:0.28;}.b{fill:#a75b1d;}.c{fill:#1da75b;}.d{stroke:#707070;}.e,.o{fill:#1d69a7;}.f{opacity:0.05;clip-path:url(#a);}.h{opacity:0.1;clip-path:url(#b);}.i{fill:#a7a01d;}.j{opacity:0.17;clip-path:url(#c);}.k{clip-path:url(#d);}.l{opacity:0.22;}.m{fill:#58a4e2;}.n{clip-path:url(#e);}</style><clipPath id="a"><rect class="a" width="154" height="262" transform="matrix(0.616, 0.788, -0.788, 0.616, 206.459, 0)"/></clipPath><clipPath id="b"><rect class="b" width="116" height="116" rx="10" transform="translate(192 1352)"/></clipPath><clipPath id="c"><rect class="c" width="128" height="128" rx="10" transform="translate(50 1274)"/></clipPath><clipPath id="d"><rect class="d" width="94" height="176" transform="translate(498.14 1204.144) rotate(42)"/></clipPath><clipPath id="e"><rect class="e" width="187" height="187" rx="10" transform="translate(321.685 1352)"/></clipPath></defs><g transform="translate(-50 -1136.276)"><rect class="e" width="172" height="172" rx="10" transform="translate(191 1161)"/><g class="f" transform="translate(166 1136.276)"><rect class="g" width="172" height="172" rx="10" transform="translate(24.685 21.724)"/></g><g transform="translate(237 1208.005)"><g transform="translate(0 -0.005)"><path class="g" d="M29,6V8.694H36.36l.723-2.331V6Z" transform="translate(10.058 0.741)"/><path class="g" d="M36.59,22.551l6.539-21.09-1.285-.4a1.331,1.331,0,0,0-1.033.1,1.347,1.347,0,0,0-.661.8l-6.372,20.6Z" transform="translate(11.715 -0.995)"/><path class="g" d="M36.919,13.121H29.04a1.347,1.347,0,0,1-1.347-1.347V6.387A1.347,1.347,0,0,1,29.04,5.04h10.37l1.212-3.886c.015-.048.042-.092.058-.135C37.769,1.009,32.8,1,25,1V22.549h9Z" transform="translate(8.67 -0.994)"/><path class="g" d="M0,0H2.694V8.082H0Z" transform="matrix(0.296, -0.955, 0.955, 0.296, 59.776, 11.878)"/><path class="g" d="M57.7,22.225,62.257,7.51,44.251,1.933,37.96,22.225ZM45.226,7.876a1.347,1.347,0,0,1,1.685-.888L57.2,10.177a1.347,1.347,0,0,1,.888,1.685L56.5,17.007a1.347,1.347,0,0,1-1.286.95,1.364,1.364,0,0,1-.4-.061L44.515,14.706a1.347,1.347,0,0,1-.888-1.684Z" transform="translate(13.165 -0.67)"/><path class="g" d="M23.694,1H22.347A1.347,1.347,0,0,0,21,2.347v20.2h2.694Z" transform="translate(7.283 -0.994)"/><path class="g" d="M79.462,64.607h-48.3c-.215,0-.418-.013-.62-.027a6.708,6.708,0,0,1-6.034-5.67l-.377-2.384H72.728a5.387,5.387,0,0,0,5.387-5.387V25.549A1.347,1.347,0,0,0,76.769,24.2H19.111L16.674,8.566A5.341,5.341,0,0,0,11.354,4H1.347a1.347,1.347,0,0,0,0,2.694H11.354A2.694,2.694,0,0,1,14.02,8.97l7.825,50.357a9.366,9.366,0,0,0,8.579,7.933,6.826,6.826,0,0,0,.741.04h1.2a6.613,6.613,0,0,0-1.227,5.507,6.734,6.734,0,0,0,13.308-1.467,6.632,6.632,0,0,0-1.387-4.04H61.994a6.613,6.613,0,0,0-1.227,5.507,6.734,6.734,0,0,0,13.308-1.467,6.632,6.632,0,0,0-1.387-4.04h6.774a1.347,1.347,0,0,0,0-2.694ZM25.59,32.283h9.428v-4.04a1.347,1.347,0,1,1,2.694,0v4.04H48.485v-4.04a1.347,1.347,0,1,1,2.694,0v4.04H61.954v-4.04a1.347,1.347,0,0,1,2.694,0v4.04h8.081a1.347,1.347,0,1,1,0,2.694H64.647V45.751h8.081a1.347,1.347,0,0,1,0,2.694H64.647v4.04a1.347,1.347,0,0,1-2.694,0v-4.04H51.179v4.04a1.347,1.347,0,1,1-2.694,0v-4.04H37.711v4.04a1.347,1.347,0,1,1-2.694,0v-4.04H28.283a1.347,1.347,0,0,1,0-2.694h6.734V34.977H25.59a1.347,1.347,0,1,1,0-2.694Z" transform="translate(0 0.047)"/><path class="g" d="M28,27H38.775V37.775H28Z" transform="translate(9.711 8.024)"/><path class="g" d="M38,27H48.775V37.775H38Z" transform="translate(13.179 8.024)"/></g></g><rect class="b" width="116" height="116" rx="10" transform="translate(192 1352)"/><g class="h"><rect class="g" width="102" height="175" transform="translate(297.109 1343.036) rotate(45)"/></g><g transform="translate(218 1377.9)"><path class="g" d="M27.97,36.13A22.826,22.826,0,0,1,36,34.31V26H26.29a35.894,35.894,0,0,0,1.68,10.13Z"/><path class="g" d="M49.72,24h8.23a20.981,20.981,0,0,0-6.06-13.79,23.333,23.333,0,0,1-3.98,2.75A37.955,37.955,0,0,1,49.72,24Z"/><path class="g" d="M14.55,30H14V49H56.17l3.62-19h-.34a23,23,0,0,1-44.9,0Z"/><path class="g" d="M45.34,38.02A20.624,20.624,0,0,0,38,36.31V45.9C40.93,45.34,43.56,42.35,45.34,38.02Z"/><path class="g" d="M57.95,26H49.72a37.955,37.955,0,0,1-1.81,11.04,23.333,23.333,0,0,1,3.98,2.75A20.981,20.981,0,0,0,57.95,26Z"/><path class="g" d="M38,4.1v9.59a20.624,20.624,0,0,0,7.34-1.71C43.56,7.65,40.93,4.66,38,4.1Z"/><path class="g" d="M50.4,8.85a20.887,20.887,0,0,0-7.03-3.86,19.26,19.26,0,0,1,3.83,6.08,21.251,21.251,0,0,0,3.2-2.22Z"/><path class="g" d="M47.71,26H38v8.31a22.826,22.826,0,0,1,8.03,1.82A35.894,35.894,0,0,0,47.71,26Z"/><path class="g" d="M46.03,13.87A22.826,22.826,0,0,1,38,15.69V24h9.71a35.894,35.894,0,0,0-1.68-10.13Z"/><path class="g" d="M43.37,45.01a20.887,20.887,0,0,0,7.03-3.86,21.251,21.251,0,0,0-3.2-2.22,19.26,19.26,0,0,1-3.83,6.08Z"/><path class="g" d="M36,13.69V4.1c-2.93.56-5.56,3.55-7.34,7.88A20.624,20.624,0,0,0,36,13.69Z"/><path class="g" d="M36,15.69a22.826,22.826,0,0,1-8.03-1.82A35.894,35.894,0,0,0,26.29,24H36Z"/><path class="g" d="M16.05,26a20.981,20.981,0,0,0,6.06,13.79,23.333,23.333,0,0,1,3.98-2.75A37.955,37.955,0,0,1,24.28,26Z"/><path class="g" d="M30.63,45.01a19.26,19.26,0,0,1-3.83-6.08,21.252,21.252,0,0,0-3.2,2.22,20.887,20.887,0,0,0,7.03,3.86Z"/><path class="g" d="M36,45.9V36.31a20.624,20.624,0,0,0-7.34,1.71C30.44,42.35,33.07,45.34,36,45.9Z"/><circle class="g" cx="3" cy="3" r="3" transform="translate(17 54)"/><circle class="g" cx="3" cy="3" r="3" transform="translate(47 54)"/><path class="g" d="M14.05,12.88l-.61.61,4.46.41-.41-4.46-.61.61a1.027,1.027,0,0,1-1.42,0L10.51,5.1,9.1,6.51l4.95,4.95a1.008,1.008,0,0,1,0,1.42Z"/><path class="g" d="M30.64,4.99a21.126,21.126,0,0,0-7.05,3.86,21.859,21.859,0,0,0,3.21,2.22,19.161,19.161,0,0,1,3.84-6.08Z"/><path class="g" d="M24.28,24a37.955,37.955,0,0,1,1.81-11.04A22.909,22.909,0,0,1,22.1,10.2a21.518,21.518,0,0,0-2.28,2.74L20,14.91a1.024,1.024,0,0,1-.29.8A1.007,1.007,0,0,1,19,16h-.09l-.84-.08A20.868,20.868,0,0,0,16.03,24Z"/><path class="g" d="M55,56h7v2H55Z"/><path class="g" d="M11,17.1A1,1,0,0,0,10,16H2v2H8.9L5,56.9A1,1,0,0,0,6,58h9V56H7.105Z"/><path class="g" d="M25,56H45v2H25Z"/></g><rect class="i" width="128" height="128" rx="10" transform="translate(50 1274)"/><g class="j"><rect class="g" width="116" height="191" transform="translate(176.851 1262.122) rotate(45)"/></g><g transform="translate(78 1300.586)"><path class="g" d="M10.226,25.966A1.155,1.155,0,0,0,9.087,25H1v2.311H8.109L13.724,61a1.155,1.155,0,0,0,1.139.966h5.521a3.466,3.466,0,1,0,5.132,0H39.125V59.659H15.842Z" transform="translate(0 3.352)"/><path class="g" d="M53.969,32.311,54.354,30H13.181l.385,2.311Z" transform="translate(1.892 4.129)"/><path class="g" d="M0,0H2.591V2.591H0Z" transform="translate(22.269 24.886) rotate(-45)"/><path class="g" d="M54,54.466h2.311V51H54Z" transform="translate(8.231 7.39)"/><path class="g" d="M30.476,29.644l3.466-3.466-8.764-8.764-1.832,1.832L25.995,21.9a1.155,1.155,0,0,1,0,1.634l-3.466,3.466a1.155,1.155,0,0,1-1.634,0l-2.649-2.649-1.832,1.832,3.466,3.466Z" transform="translate(2.394 2.174)"/><path class="g" d="M47,39h2.311v3.466H47Z" transform="translate(7.144 5.527)"/><path class="g" d="M55.864,39H52.4v4.621a1.155,1.155,0,0,1-1.155,1.155H46.621a1.155,1.155,0,0,1-1.155-1.155V39H42V50.553H55.864Z" transform="translate(6.367 5.527)"/><path class="g" d="M59.4,51v4.621a1.155,1.155,0,0,1-1.155,1.155H53.621a1.155,1.155,0,0,1-1.155-1.155V51H49V62.553H62.864V51Z" transform="translate(7.454 7.39)"/><path class="g" d="M45.4,55.621a1.155,1.155,0,0,1-1.155,1.155H39.621a1.155,1.155,0,0,1-1.155-1.155V51H35V62.553H48.864V51H45.4Z" transform="translate(5.28 7.39)"/><path class="g" d="M44.062,38.621a1.155,1.155,0,0,1,1.155-1.155H52.9L53.481,34H13.847l3.466,20.8H35.974V52.485A1.155,1.155,0,0,1,37.13,51.33h6.932Z" transform="translate(1.995 4.75)"/><path class="g" d="M40,51v3.466h2.311V51H40Z" transform="translate(6.057 7.39)"/><path class="g" d="M53.942,12.178,52.11,10.346l-2.649,2.649a1.155,1.155,0,0,1-1.634,0L44.361,9.529a1.155,1.155,0,0,1,0-1.634L47.01,5.246,45.178,3.414l-8.764,8.764,8.764,8.764Z" transform="translate(5.5)"/><path class="g" d="M0,0H2.591V2.591H0Z" transform="translate(52.306 8.717) rotate(-45)"/></g><rect class="c" width="116" height="116" rx="10" transform="translate(393 1216)"/><g class="k"><rect class="l" width="116" height="116" rx="10" transform="translate(393 1216)"/></g><g transform="translate(419 1242.409)"><path class="g" d="M25,52H5a3,3,0,0,0-3,3v1a1,1,0,0,0,1,1H27a1,1,0,0,0,1-1V55a3,3,0,0,0-3-3Z"/><path class="g" d="M24,50a3.009,3.009,0,0,0-3-3H9a3.009,3.009,0,0,0-3,3v1H24Z"/><rect class="g" width="6.242" height="18.97" rx="1" transform="translate(11.582 29) rotate(-45)"/><rect class="g" width="6.242" height="18.97" rx="1" transform="translate(29.582 11.004) rotate(-45)"/><path class="g" d="M20.887,17.839H38.112V31.161H20.887Z" transform="translate(-8.684 28.036) rotate(-45)"/><path class="g" d="M39.5,26.09l-.38-.38-8.41,8.41.38.38a2,2,0,0,0,2.82,0l5.59-5.59a1.992,1.992,0,0,0,0-2.82Z"/><path class="g" d="M61.09,51.67,39.63,30.21l-4.42,4.42L56.67,56.09a3.125,3.125,0,0,0,4.42-4.42Z"/></g><rect class="m" width="187" height="187" rx="10" transform="translate(322 1352)"/><g class="n"><rect class="o" width="154" height="262" transform="matrix(0.616, 0.788, -0.788, 0.616, 502.459, 1348.276)"/></g><g transform="translate(334 1372.933)"><ellipse class="g" cx="4.5" cy="3.5" rx="4.5" ry="3.5" transform="translate(97 42.067)"/><circle class="g" cx="3.5" cy="3.5" r="3.5" transform="translate(117 62.067)"/><path class="g" d="M237.3,109.433l-3.844-2.619-3.844,2.619a1.826,1.826,0,0,1-1.055.32,1.918,1.918,0,0,1-1.545-.773l-2.714-3.769-4.523,1.131a1.884,1.884,0,0,1-2.261-1.319l-1.263-4.466-4.636-.471a1.9,1.9,0,0,1-1.7-2.016l.339-4.636L206.077,91.4a1.884,1.884,0,0,1-.9-2.469l1.9-4.24-3.241-3.335a1.926,1.926,0,0,1,0-2.638l3.241-3.335-1.9-4.24a1.884,1.884,0,0,1,.9-2.469l4.184-2.035L209.921,62a1.9,1.9,0,0,1,1.7-2.016l4.636-.471,1.263-4.466a1.862,1.862,0,0,1,2.261-1.319l4.523,1.131,2.714-3.769a1.905,1.905,0,0,1,2.6-.452l3.844,2.619,3.844-2.619a1.884,1.884,0,0,1,2.6.452L241,52.617V49.884A1.885,1.885,0,0,0,239.111,48H193.884A1.885,1.885,0,0,0,192,49.884v64.071a1.885,1.885,0,0,0,1.884,1.884H197.3l8.687-8.48a9.422,9.422,0,0,1,15.9,8.48h17.224A1.885,1.885,0,0,0,241,113.956v-6.5l-1.093,1.526a1.884,1.884,0,0,1-2.6.452Z" transform="translate(-122.311 -24.462)"/><path class="g" d="M86.328,243.068l-24.743,24.1-2.638-2.714,12.211-11.872a5.653,5.653,0,0,1-5.239-5.616V222L41.78,236.3A20.612,20.612,0,0,0,32,253.9v19.447a13.206,13.206,0,0,0,13.191,13.191H73.457a5.671,5.671,0,0,0,5.653-5.653V269.582a1.825,1.825,0,0,1,.452-1.225l14.661-17.186a5.706,5.706,0,0,0,.128-8.069l-.034-.034A5.8,5.8,0,0,0,86.328,243.068ZM39.537,257.682H35.769a24.347,24.347,0,0,1,11.6-20.831l1.984,3.2A20.6,20.6,0,0,0,39.537,257.682Z" transform="translate(0 -157.476)"/><path class="g" d="M310.415,102.052l-2.864-2.94a1.884,1.884,0,0,1-.377-2.092l1.7-3.731-3.694-1.79a1.884,1.884,0,0,1-1.074-1.828l.3-4.108-4.089-.4a1.919,1.919,0,0,1-1.621-1.376l-1.112-3.938-3.976,1a1.869,1.869,0,0,1-1.979-.716L289.215,76.8l-3.392,2.318a1.885,1.885,0,0,1-2.111,0L280.32,76.8l-2.412,3.335a1.884,1.884,0,0,1-1.979.716l-3.976-1-1.112,3.938a1.92,1.92,0,0,1-1.639,1.376l-4.07.4.3,4.108a1.884,1.884,0,0,1-1.074,1.828l-3.694,1.79,1.7,3.731a1.884,1.884,0,0,1-.377,2.092l-2.864,2.94,2.864,2.94a1.884,1.884,0,0,1,.377,2.092l-1.7,3.731,3.694,1.79a1.884,1.884,0,0,1,1.074,1.828l-.3,4.108,4.089.4a1.919,1.919,0,0,1,1.621,1.376l1.112,3.938,3.976-1a1.869,1.869,0,0,1,1.979.716l2.412,3.335,3.392-2.318a1.9,1.9,0,0,1,2.111,0l3.392,2.318,2.412-3.335a1.884,1.884,0,0,1,1.979-.716l3.976,1,1.112-3.938a1.921,1.921,0,0,1,1.639-1.376l4.07-.4-.3-4.108a1.884,1.884,0,0,1,1.074-1.828l3.694-1.79-1.7-3.731a1.885,1.885,0,0,1,.377-2.092Zm-35.07-16.96a7.538,7.538,0,1,1-7.538,7.538A7.538,7.538,0,0,1,275.345,85.092Zm-4.321,33.368-2.665-2.665,30.151-30.151,2.665,2.665Zm23.165.552a7.538,7.538,0,1,1,7.538-7.538A7.538,7.538,0,0,1,294.19,119.012Z" transform="translate(-173.621 -46.478)"/><path class="g" d="M115.769,27.307h3.769V23.538h3.769V19.769h-3.769V16h-3.769v3.769H112v3.769h3.769Z" transform="translate(-61.156)"/><path class="g" d="M455.538,19.769V16h-3.769v3.769H448v3.769h3.769v3.769h3.769V23.538h3.769V19.769Z" transform="translate(-318.009)"/><path class="g" d="M75.769,75.307h3.769V71.538h3.769V67.769H79.538V64H75.769v3.769H72v3.769h3.769Z" transform="translate(-30.578 -36.693)"/></g></g></svg>