<svg xmlns="http://www.w3.org/2000/svg" width="16" height="15.369" viewBox="0 0 16 15.369"><defs><style>.a{fill:#fff;}</style></defs><path class="a" d="M1861.055,46.357a.319.319,0,0,0,0-.047c0-4.442-.809-9.543-7.128-9.543a6.429,6.429,0,0,0-5.215,2.057c-1.615,1.9-1.912,4.809-1.912,7.485a.3.3,0,0,0,0,.047,3.044,3.044,0,0,0-.43.461,2.035,2.035,0,0,0-.445,1.344l.082,1.476a2.592,2.592,0,0,0,1.78,2.085,4.933,4.933,0,0,0,.614.215c.139.039.281.074.428.1-.137-.027-.266-.065-.4-.1l-.335-6.347c.063-.026.128-.05.193-.073.1-.035.2-.069.3-.1.037-.012.067-.018.1-.027l.354,6.682c-.067-.01-.133-.021-.213-.036a4.433,4.433,0,0,0,.75.092l.2,0c.274.005.467-.532.431-1.193l-.254-4.549c-.036-.66-.269-1.176-.517-1.146-.127.016-.243.03-.381.056a7.452,7.452,0,0,1,1.2-4.324,4.336,4.336,0,0,1,3.657-1.489c3.88,0,4.734,2.681,4.862,5.813-.138-.026-.254-.04-.382-.056-.087-.01-.172.047-.248.154a1.425,1.425,0,0,0-.193.468,2.841,2.841,0,0,0-.076.523l-.254,4.549c-.036.66.157,1.2.431,1.193l.167,0a4.076,4.076,0,0,0,.606-.06l.18-.033c-.08.015-.146.026-.213.036l.354-6.682c.034.009.064.015.1.027.1.029.2.063.3.1.065.024.129.048.192.073l-.335,6.347c-.132.035-.26.073-.4.1a4.545,4.545,0,0,0,1.845-.775,2.214,2.214,0,0,0,.977-1.628l.082-1.476A2.259,2.259,0,0,0,1861.055,46.357Zm-.613-.436a4.775,4.775,0,0,0-.431-.222c-.026-1.748-.26-4.667-2.3-6.27a5.914,5.914,0,0,0-3.781-1.14,5.5,5.5,0,0,0-4.485,1.826c-1.39,1.656-1.571,4.062-1.594,5.583a4.708,4.708,0,0,0-.444.231,21.665,21.665,0,0,1,.153-2.49,7.982,7.982,0,0,1,1.565-4.165,5.726,5.726,0,0,1,4.5-1.9c.1,0,.2-.008.3-.008,5.586,0,6.478,4.264,6.525,8.56Z" transform="translate(-1845.932 -36.768)"/></svg>