<svg xmlns="http://www.w3.org/2000/svg" width="16.095" height="11.159" viewBox="0 0 16.095 11.159"><defs><style>.a{fill:#fff;}</style></defs><g transform="translate(0 -78.521)"><g transform="translate(10.127 85.622)"><g transform="translate(0 0)"><path class="a" d="M324.18,304.4a2.029,2.029,0,1,0,2.029,2.029A2.031,2.031,0,0,0,324.18,304.4Zm0,3.043a1.014,1.014,0,1,1,1.014-1.014A1.015,1.015,0,0,1,324.18,307.446Z" transform="translate(-322.151 -304.403)"/></g></g><g transform="translate(3.195 85.622)"><g transform="translate(0 0)"><path class="a" d="M103.676,304.4a2.029,2.029,0,1,0,2.029,2.029A2.031,2.031,0,0,0,103.676,304.4Zm0,3.043a1.014,1.014,0,1,1,1.014-1.014A1.015,1.015,0,0,1,103.676,307.446Z" transform="translate(-101.647 -304.403)"/></g></g><g transform="translate(10.398 79.535)"><g transform="translate(0 0)"><path class="a" d="M333.881,111.069a.507.507,0,0,0-.453-.279h-2.671V111.8h2.359l1.381,2.747.907-.456Z" transform="translate(-330.756 -110.79)"/></g></g><g transform="translate(6.797 87.16)"><g transform="translate(0 0)"><rect class="a" width="3.838" height="1.014"/></g></g><g transform="translate(1.437 87.16)"><g transform="translate(0 0)"><path class="a" d="M47.98,353.345H46.222a.507.507,0,1,0,0,1.014h1.758a.507.507,0,1,0,0-1.014Z" transform="translate(-45.715 -353.345)"/></g></g><g transform="translate(1.437 78.521)"><g transform="translate(0 0)"><path class="a" d="M60.267,84.06l-1-1.285a.506.506,0,0,0-.4-.2H55.183v-3.55a.507.507,0,0,0-.507-.507H46.222a.507.507,0,0,0,0,1.014h7.946v3.55a.507.507,0,0,0,.507.507H58.62l.739.952V87.16h-1.4a.507.507,0,1,0,0,1.014h1.91a.507.507,0,0,0,.507-.507v-3.3A.508.508,0,0,0,60.267,84.06Z" transform="translate(-45.715 -78.521)"/></g></g><g transform="translate(0.828 84.591)"><g transform="translate(0 0)"><path class="a" d="M29.193,271.6H26.86a.507.507,0,0,0,0,1.014h2.333a.507.507,0,0,0,0-1.014Z" transform="translate(-26.353 -271.597)"/></g></g><g transform="translate(0 82.596)"><g transform="translate(0 0)"><path class="a" d="M4.835,208.134H.507a.507.507,0,0,0,0,1.014H4.835a.507.507,0,0,0,0-1.014Z" transform="translate(0 -208.134)"/></g></g><g transform="translate(0.828 80.601)"><g transform="translate(0 0)"><path class="a" d="M31.188,144.672H26.86a.507.507,0,0,0,0,1.014h4.328a.507.507,0,0,0,0-1.014Z" transform="translate(-26.353 -144.672)"/></g></g></g></svg>