<svg xmlns="http://www.w3.org/2000/svg" width="16" height="16" viewBox="0 0 16 16"><defs><style>.a{fill:#fff;}</style></defs><path class="a" d="M16,10.828a5.184,5.184,0,0,0-3.787-4.984A6.109,6.109,0,1,0,.847,9.215L.022,12.2,3,11.372a6.087,6.087,0,0,0,2.84.841,5.173,5.173,0,0,0,7.615,3.069l2.518.7-.7-2.518A5.153,5.153,0,0,0,16,10.828Zm-12.848-.47-1.785.494.494-1.785-.113-.176a5.17,5.17,0,1,1,1.58,1.58Zm11.481,4.275-1.324-.366-.177.115a4.236,4.236,0,0,1-6.318-2.2,6.121,6.121,0,0,0,5.364-5.364,4.236,4.236,0,0,1,2.2,6.318l-.115.177Zm0,0"/><path class="a" d="M180.5,271h.927v.927H180.5Zm0,0" transform="translate(-174.856 -262.525)"/><path class="a" d="M138.282,91.855a.918.918,0,0,1-.3.684l-1.089,1v1.131h.927v-.723l.788-.721a1.854,1.854,0,1,0-3.106-1.368h.927a.927.927,0,0,1,1.854,0Zm0,0" transform="translate(-131.251 -87.175)"/></svg>