<svg xmlns="http://www.w3.org/2000/svg" width="29.708" height="29.708" viewBox="0 0 29.708 29.708"><path d="M26.479,0H3.229A3.233,3.233,0,0,0,0,3.229V21.312a3.233,3.233,0,0,0,3.229,3.229H5.167v4.521a.645.645,0,0,0,.4.6.635.635,0,0,0,.247.049.646.646,0,0,0,.457-.189l4.977-4.977H26.479a3.233,3.233,0,0,0,3.229-3.229V3.229A3.233,3.233,0,0,0,26.479,0Zm1.937,21.312a1.94,1.94,0,0,1-1.937,1.937h-15.5a.643.643,0,0,0-.457.189L6.458,27.5V23.9a.645.645,0,0,0-.646-.646H3.229a1.94,1.94,0,0,1-1.937-1.937V3.229A1.94,1.94,0,0,1,3.229,1.292h23.25a1.94,1.94,0,0,1,1.937,1.937Zm0,0" transform="translate(0 0)"/><path d="M128.646,70.458a.645.645,0,0,0,.646-.646V64.646a.646.646,0,1,0-1.292,0v5.167A.645.645,0,0,0,128.646,70.458Zm0,0" transform="translate(-117.667 -58.833)"/><path d="M224.646,70.458a.645.645,0,0,0,.646-.646V64.646a.646.646,0,1,0-1.292,0v5.167A.645.645,0,0,0,224.646,70.458Zm0,0" transform="translate(-205.917 -58.833)"/><path d="M82.729,160a.645.645,0,0,0-.646.646,4.527,4.527,0,0,1-4.521,4.521h-7.75a4.527,4.527,0,0,1-4.521-4.521.646.646,0,1,0-1.292,0,5.819,5.819,0,0,0,5.812,5.812h7.75a5.819,5.819,0,0,0,5.812-5.812A.645.645,0,0,0,82.729,160Zm0,0" transform="translate(-58.833 -147.084)"/></svg>