<svg xmlns="http://www.w3.org/2000/svg" width="16" height="16" viewBox="0 0 16 16"><defs><style>.a{fill:#fff;}</style></defs><path class="a" d="M13,5a8,8,0,1,0,8,8,8,8,0,0,0-8-8Zm6.5,7.273H16.615A13.455,13.455,0,0,0,15.409,6.92,6.556,6.556,0,0,1,19.5,12.273ZM13,19.545c-.835,0-2.023-2.243-2.167-5.818h4.335C15.023,17.3,13.835,19.545,13,19.545Zm-2.167-7.273C10.978,8.7,12.165,6.455,13,6.455s2.023,2.243,2.167,5.818ZM10.591,6.92a13.455,13.455,0,0,0-1.205,5.353H6.5A6.556,6.556,0,0,1,10.591,6.92ZM6.5,13.727H9.385a13.455,13.455,0,0,0,1.205,5.353A6.556,6.556,0,0,1,6.5,13.727Zm8.912,5.353a13.455,13.455,0,0,0,1.205-5.353H19.5A6.556,6.556,0,0,1,15.409,19.08Z" transform="translate(-5 -5)"/></svg>